{
	"asset":{
		"generator":"Khronos glTF Blender I/O v4.0.44",
		"version":"2.0"
	},
	"scene":0,
	"scenes":[
		{
			"name":"Scene",
			"nodes":[
				0,
				1,
				2
			]
		}
	],
	"nodes":[
		{
			"mesh":0,
			"name":"Earth",
			"scale":[
				0.5,
				0.5,
				0.5
			]
		},
		{
			"mesh":1,
			"name":"Text",
			"scale":[
				0.5,
				0.5,
				0.5
			]
		},
		{
			"mesh":2,
			"name":"Rocket",
			"rotation":[
				-0.47449490427970886,
				-0.3285906910896301,
				-0.19671757519245148,
				0.7925812005996704
			],
			"scale":[
				2,
				1.9999998807907104,
				2
			]
		}
	],
	"animations":[
		{
			"channels":[
				{
					"sampler":0,
					"target":{
						"node":0,
						"path":"translation"
					}
				},
				{
					"sampler":1,
					"target":{
						"node":0,
						"path":"rotation"
					}
				}
			],
			"name":"EarthRotation",
			"samplers":[
				{
					"input":12,
					"interpolation":"STEP",
					"output":13
				},
				{
					"input":14,
					"interpolation":"LINEAR",
					"output":15
				}
			]
		},
		{
			"channels":[
				{
					"sampler":0,
					"target":{
						"node":1,
						"path":"rotation"
					}
				}
			],
			"name":"TextRotation",
			"samplers":[
				{
					"input":16,
					"interpolation":"LINEAR",
					"output":17
				}
			]
		},
		{
			"channels":[
				{
					"sampler":0,
					"target":{
						"node":2,
						"path":"translation"
					}
				},
				{
					"sampler":1,
					"target":{
						"node":2,
						"path":"rotation"
					}
				},
				{
					"sampler":2,
					"target":{
						"node":2,
						"path":"scale"
					}
				}
			],
			"name":"RocketTakeoff",
			"samplers":[
				{
					"input":18,
					"interpolation":"LINEAR",
					"output":19
				},
				{
					"input":18,
					"interpolation":"LINEAR",
					"output":20
				},
				{
					"input":18,
					"interpolation":"LINEAR",
					"output":21
				}
			]
		}
	],
	"materials":[
		{
			"doubleSided":true,
			"name":"Earth",
			"occlusionTexture":{
				"index":0
			},
			"pbrMetallicRoughness":{
				"baseColorTexture":{
					"index":1
				},
				"metallicFactor":0,
				"metallicRoughnessTexture":{
					"index":0
				}
			}
		},
		{
			"doubleSided":true,
			"emissiveTexture":{
				"index":2
			},
			"name":"Rocket",
			"pbrMetallicRoughness":{
				"baseColorTexture":{
					"index":3
				},
				"metallicFactor":0,
				"roughnessFactor":0.5
			}
		}
	],
	"meshes":[
		{
			"name":"Earth",
			"primitives":[
				{
					"attributes":{
						"POSITION":0,
						"NORMAL":1,
						"TEXCOORD_0":2
					},
					"indices":3,
					"material":0
				}
			]
		},
		{
			"name":"Text",
			"primitives":[
				{
					"attributes":{
						"POSITION":4,
						"NORMAL":5,
						"TEXCOORD_0":6
					},
					"indices":7,
					"material":1
				}
			]
		},
		{
			"name":"Rocket",
			"primitives":[
				{
					"attributes":{
						"POSITION":8,
						"NORMAL":9,
						"TEXCOORD_0":10
					},
					"indices":11,
					"material":1
				}
			]
		}
	],
	"textures":[
		{
			"sampler":0,
			"source":0
		},
		{
			"sampler":0,
			"source":1
		},
		{
			"sampler":0,
			"source":2
		},
		{
			"sampler":0,
			"source":2
		}
	],
	"images":[
		{
			"mimeType":"image/png",
			"name":"Image_1",
			"uri":"Image_1.png"
		},
		{
			"mimeType":"image/png",
			"name":"Image_0",
			"uri":"Image_0.png"
		},
		{
			"mimeType":"image/png",
			"name":"Clothes palette",
			"uri":"Clothes%20palette.png"
		}
	],
	"accessors":[
		{
			"bufferView":0,
			"componentType":5126,
			"count":8249,
			"max":[
				0.7759522795677185,
				0.7802797555923462,
				0.7721920013427734
			],
			"min":[
				-0.7684306502342224,
				-0.7802889943122864,
				-0.7721911668777466
			],
			"type":"VEC3"
		},
		{
			"bufferView":1,
			"componentType":5126,
			"count":8249,
			"type":"VEC3"
		},
		{
			"bufferView":2,
			"componentType":5126,
			"count":8249,
			"type":"VEC2"
		},
		{
			"bufferView":3,
			"componentType":5123,
			"count":47616,
			"type":"SCALAR"
		},
		{
			"bufferView":4,
			"componentType":5126,
			"count":7880,
			"max":[
				1.3175452947616577,
				0.27299484610557556,
				1.1963911056518555
			],
			"min":[
				-1.31754469871521,
				-0.06604120135307312,
				-0.12458527088165283
			],
			"type":"VEC3"
		},
		{
			"bufferView":5,
			"componentType":5126,
			"count":7880,
			"type":"VEC3"
		},
		{
			"bufferView":6,
			"componentType":5126,
			"count":7880,
			"type":"VEC2"
		},
		{
			"bufferView":7,
			"componentType":5123,
			"count":20028,
			"type":"SCALAR"
		},
		{
			"bufferView":8,
			"componentType":5126,
			"count":9229,
			"max":[
				0.025760306045413017,
				0.09842285513877869,
				0.033850811421871185
			],
			"min":[
				-0.02819354645907879,
				0.0001463794324081391,
				-0.023379342630505562
			],
			"type":"VEC3"
		},
		{
			"bufferView":9,
			"componentType":5126,
			"count":9229,
			"type":"VEC3"
		},
		{
			"bufferView":10,
			"componentType":5126,
			"count":9229,
			"type":"VEC2"
		},
		{
			"bufferView":11,
			"componentType":5123,
			"count":51426,
			"type":"SCALAR"
		},
		{
			"bufferView":12,
			"componentType":5126,
			"count":2,
			"max":[
				8.333333333333334
			],
			"min":[
				0.041666666666666664
			],
			"type":"SCALAR"
		},
		{
			"bufferView":13,
			"componentType":5126,
			"count":2,
			"type":"VEC3"
		},
		{
			"bufferView":14,
			"componentType":5126,
			"count":200,
			"max":[
				8.333333333333334
			],
			"min":[
				0.041666666666666664
			],
			"type":"SCALAR"
		},
		{
			"bufferView":15,
			"componentType":5126,
			"count":200,
			"type":"VEC4"
		},
		{
			"bufferView":16,
			"componentType":5126,
			"count":201,
			"max":[
				8.333333333333334
			],
			"min":[
				0
			],
			"type":"SCALAR"
		},
		{
			"bufferView":17,
			"componentType":5126,
			"count":201,
			"type":"VEC4"
		},
		{
			"bufferView":18,
			"componentType":5126,
			"count":300,
			"max":[
				12.5
			],
			"min":[
				0.041666666666666664
			],
			"type":"SCALAR"
		},
		{
			"bufferView":19,
			"componentType":5126,
			"count":300,
			"type":"VEC3"
		},
		{
			"bufferView":20,
			"componentType":5126,
			"count":300,
			"type":"VEC4"
		},
		{
			"bufferView":21,
			"componentType":5126,
			"count":300,
			"type":"VEC3"
		}
	],
	"bufferViews":[
		{
			"buffer":0,
			"byteLength":98988,
			"byteOffset":0,
			"target":34962
		},
		{
			"buffer":0,
			"byteLength":98988,
			"byteOffset":98988,
			"target":34962
		},
		{
			"buffer":0,
			"byteLength":65992,
			"byteOffset":197976,
			"target":34962
		},
		{
			"buffer":0,
			"byteLength":95232,
			"byteOffset":263968,
			"target":34963
		},
		{
			"buffer":0,
			"byteLength":94560,
			"byteOffset":359200,
			"target":34962
		},
		{
			"buffer":0,
			"byteLength":94560,
			"byteOffset":453760,
			"target":34962
		},
		{
			"buffer":0,
			"byteLength":63040,
			"byteOffset":548320,
			"target":34962
		},
		{
			"buffer":0,
			"byteLength":40056,
			"byteOffset":611360,
			"target":34963
		},
		{
			"buffer":0,
			"byteLength":110748,
			"byteOffset":651416,
			"target":34962
		},
		{
			"buffer":0,
			"byteLength":110748,
			"byteOffset":762164,
			"target":34962
		},
		{
			"buffer":0,
			"byteLength":73832,
			"byteOffset":872912,
			"target":34962
		},
		{
			"buffer":0,
			"byteLength":102852,
			"byteOffset":946744,
			"target":34963
		},
		{
			"buffer":0,
			"byteLength":8,
			"byteOffset":1049596
		},
		{
			"buffer":0,
			"byteLength":24,
			"byteOffset":1049604
		},
		{
			"buffer":0,
			"byteLength":800,
			"byteOffset":1049628
		},
		{
			"buffer":0,
			"byteLength":3200,
			"byteOffset":1050428
		},
		{
			"buffer":0,
			"byteLength":804,
			"byteOffset":1053628
		},
		{
			"buffer":0,
			"byteLength":3216,
			"byteOffset":1054432
		},
		{
			"buffer":0,
			"byteLength":1200,
			"byteOffset":1057648
		},
		{
			"buffer":0,
			"byteLength":3600,
			"byteOffset":1058848
		},
		{
			"buffer":0,
			"byteLength":4800,
			"byteOffset":1062448
		},
		{
			"buffer":0,
			"byteLength":3600,
			"byteOffset":1067248
		}
	],
	"samplers":[
		{
			"magFilter":9729,
			"minFilter":9987
		}
	],
	"buffers":[
		{
			"byteLength":1070848,
			"uri":"Cosmo.bin"
		}
	]
}
